HIERARCHY
ROOT joint_0
{
	OFFSET 0.000000 0.000000 0.000000
	CHANNELS 6 Xposition Yposition Zposition Zrotation Yrotation Xrotation 
	JOINT joint_1
	{
		OFFSET 4.520508 -1.939880 86.268921
		CHANNELS 3 Zrotation Yrotation Xrotation
		JOINT joint_2
		{
			OFFSET -4.459717 -0.438538 78.934082
			CHANNELS 3 Zrotation Yrotation Xrotation
			JOINT joint_3
			{
				OFFSET -5.197754 -0.781128 78.796997
				CHANNELS 3 Zrotation Yrotation Xrotation
				JOINT joint_4
				{
					OFFSET 2.952026 -3.710571 109.812988
					CHANNELS 3 Zrotation Yrotation Xrotation
					JOINT joint_5
					{
						OFFSET 24.716797 -5.488037 87.903931
						CHANNELS 3 Zrotation Yrotation Xrotation
						End Site
						{
							OFFSET 0.000000 0.000000 0.000000
						}
					}
				}
				JOINT joint_6
				{
					OFFSET -3.154419 -25.484680 60.934937
					CHANNELS 3 Zrotation Yrotation Xrotation
					JOINT joint_7
					{
						OFFSET -28.997192 -144.472229 -32.671997
						CHANNELS 3 Zrotation Yrotation Xrotation
						JOINT joint_8
						{
							OFFSET 19.867676 -18.614380 -249.897949
							CHANNELS 3 Zrotation Yrotation Xrotation
							JOINT joint_9
							{
								OFFSET 5.281982 -13.816650 -264.993042
								CHANNELS 3 Zrotation Yrotation Xrotation
								End Site
								{
									OFFSET 0.000000 0.000000 0.000000
								}
							}
						}
					}
				}
				JOINT joint_10
				{
					OFFSET 6.494995 21.336792 62.257935
					CHANNELS 3 Zrotation Yrotation Xrotation
					JOINT joint_11
					{
						OFFSET 31.106567 145.200745 -27.007935
						CHANNELS 3 Zrotation Yrotation Xrotation
						JOINT joint_12
						{
							OFFSET 29.119141 24.684326 -248.460083
							CHANNELS 3 Zrotation Yrotation Xrotation
							JOINT joint_13
							{
								OFFSET 21.220093 31.248413 -262.703979
								CHANNELS 3 Zrotation Yrotation Xrotation
								End Site
								{
									OFFSET 0.000000 0.000000 0.000000
								}
							}
						}
					}
				}
			}
		}
	}
	JOINT joint_14
	{
		OFFSET -15.458496 -88.861694 -109.593018
		CHANNELS 3 Zrotation Yrotation Xrotation
		JOINT joint_15
		{
			OFFSET -6.193359 6.837952 -506.710999
			CHANNELS 3 Zrotation Yrotation Xrotation
			JOINT joint_16
			{
				OFFSET -35.096680 13.289795 -435.677025
				CHANNELS 3 Zrotation Yrotation Xrotation
				JOINT joint_17
				{
					OFFSET 158.491211 -33.916565 -71.771002
					CHANNELS 3 Zrotation Yrotation Xrotation
					End Site
					{
						OFFSET 0.000000 0.000000 0.000000
					}
				}
			}
		}
	}
	JOINT joint_18
	{
		OFFSET 23.116943 86.574158 -110.082031
		CHANNELS 3 Zrotation Yrotation Xrotation
		JOINT joint_19
		{
			OFFSET -6.125854 -0.283569 -506.757019
			CHANNELS 3 Zrotation Yrotation Xrotation
			JOINT joint_20
			{
				OFFSET -63.240234 11.589966 -432.537994
				CHANNELS 3 Zrotation Yrotation Xrotation
				JOINT joint_21
				{
					OFFSET 156.074219 -41.487305 -73.077999
					CHANNELS 3 Zrotation Yrotation Xrotation
					End Site
					{
						OFFSET 0.000000 0.000000 0.000000
					}
				}
			}
		}
	}
}
MOTION
Frames: 10
Frame Time: 0.016667
-469.932129 798.016418 1142.927002 41.909354 -0.184023 0.109251 -0.534631 -2.461007 -1.326243 -0.351177 0.491766 0.255342 -0.378493 -0.466391 -0.193502 -0.068410 1.962965 0.567949 0.000000 0.000000 0.000000 0.051443 0.858227 -0.428361 -0.144746 0.934661 0.723083 -0.458745 1.604616 -1.010445 0.000000 0.000000 0.000000 0.531110 0.587624 0.805233 -0.167236 0.964542 -0.679382 0.539389 1.239537 3.683033 0.000000 0.000000 0.000000 -0.360567 0.300095 -1.329492 -0.360997 -0.883586 -0.293251 -0.348665 1.656273 0.195189 0.000000 0.000000 0.000000 -0.029479 0.498516 0.672693 0.026381 -0.328937 -0.004661 0.044199 0.898081 0.259248 0.000000 0.000000 0.000000 
-469.890564 797.991028 1142.932983 41.909488 -0.176448 0.111741 -0.527454 -2.456278 -1.339252 -0.343350 0.488668 0.259522 -0.370914 -0.464234 -0.195400 -0.056803 1.923712 0.520567 0.000000 0.000000 0.000000 0.046891 0.855129 -0.436574 -0.149057 0.934107 0.704056 -0.462487 1.617364 -1.013280 0.000000 0.000000 0.000000 0.527147 0.579571 0.808699 -0.170114 0.960445 -0.691044 0.535348 1.224265 3.682412 0.000000 0.000000 0.000000 -0.361569 0.292241 -1.329478 -0.361627 -0.883712 -0.292945 -0.349192 1.659121 0.195557 0.000000 0.000000 0.000000 -0.029702 0.494937 0.671938 0.026001 -0.337598 -0.003742 0.044629 0.901867 0.260457 0.000000 0.000000 0.000000 
-469.851227 797.957336 1142.938965 41.906364 -0.169880 0.113971 -0.519820 -2.452321 -1.348827 -0.335319 0.486564 0.262523 -0.363147 -0.463091 -0.197832 -0.044037 1.888001 0.468728 0.000000 0.000000 0.000000 0.042848 0.851787 -0.442877 -0.153236 0.934445 0.681390 -0.465630 1.627874 -1.015395 0.000000 0.000000 0.000000 0.525869 0.571403 0.812892 -0.172121 0.955152 -0.699019 0.531816 1.211166 3.679709 0.000000 0.000000 0.000000 -0.361152 0.284883 -1.328372 -0.360885 -0.884127 -0.294056 -0.348544 1.662212 0.196522 0.000000 0.000000 0.000000 -0.028957 0.492261 0.672261 0.026676 -0.345974 -0.003727 0.045887 0.905757 0.262090 0.000000 0.000000 0.000000 
-469.813171 797.910950 1142.943970 41.900283 -0.164765 0.115616 -0.512088 -2.450444 -1.354371 -0.327382 0.487370 0.264176 -0.355398 -0.463736 -0.199122 -0.029472 1.854975 0.409589 0.000000 0.000000 0.000000 0.036816 0.847976 -0.448555 -0.157485 0.935176 0.652533 -0.467785 1.635130 -1.013885 0.000000 0.000000 0.000000 0.529354 0.563050 0.817081 -0.172910 0.947922 -0.702489 0.529043 1.201299 3.674208 0.000000 0.000000 0.000000 -0.359274 0.278028 -1.325114 -0.358723 -0.883833 -0.297678 -0.346802 1.664957 0.197919 0.000000 0.000000 0.000000 -0.027585 0.490129 0.674328 0.028065 -0.352588 -0.004778 0.047526 0.908783 0.263678 0.000000 0.000000 0.000000 
-469.776672 797.855530 1142.947998 41.891592 -0.160992 0.117082 -0.504273 -2.448720 -1.358059 -0.319414 0.488901 0.266296 -0.347674 -0.465291 -0.200876 -0.013901 1.825165 0.346443 0.000000 0.000000 0.000000 0.031462 0.843922 -0.452886 -0.161657 0.936707 0.620110 -0.469327 1.640109 -1.011219 0.000000 0.000000 0.000000 0.536059 0.554345 0.822209 -0.172885 0.939399 -0.703176 0.526828 1.193711 3.667266 0.000000 0.000000 0.000000 -0.356464 0.272087 -1.320968 -0.355685 -0.883629 -0.302210 -0.344316 1.667296 0.199571 0.000000 0.000000 0.000000 -0.025442 0.489186 0.677337 0.030320 -0.358925 -0.006750 0.049823 0.911423 0.265478 0.000000 0.000000 0.000000 
-469.740845 797.800842 1142.954956 41.881981 -0.156232 0.119388 -0.496578 -2.447525 -1.362684 -0.311518 0.490133 0.268398 -0.339993 -0.467525 -0.202165 0.000468 1.805673 0.288732 0.000000 0.000000 0.000000 0.028459 0.840531 -0.456619 -0.165481 0.938607 0.591990 -0.471152 1.646060 -1.010173 0.000000 0.000000 0.000000 0.540049 0.546851 0.828231 -0.172852 0.932737 -0.703646 0.525306 1.188432 3.662895 0.000000 0.000000 0.000000 -0.353331 0.267160 -1.318115 -0.352411 -0.888034 -0.306244 -0.341486 1.671726 0.201834 0.000000 0.000000 0.000000 -0.022936 0.488670 0.679764 0.032961 -0.368287 -0.009490 0.052596 0.916028 0.268028 0.000000 0.000000 0.000000 
-469.705078 797.752563 1142.964966 41.871982 -0.150369 0.123295 -0.489524 -2.447342 -1.367590 -0.304316 0.489737 0.269736 -0.332947 -0.467900 -0.203443 0.013512 1.800650 0.237512 0.000000 0.000000 0.000000 0.032723 0.838329 -0.460004 -0.168479 0.941649 0.571461 -0.473299 1.652619 -1.013219 0.000000 0.000000 0.000000 0.540619 0.540211 0.837603 -0.173277 0.929245 -0.708611 0.524957 1.186716 3.665005 0.000000 0.000000 0.000000 -0.350328 0.264466 -1.318110 -0.349428 -0.899314 -0.308510 -0.338663 1.678432 0.204581 0.000000 0.000000 0.000000 -0.020537 0.488788 0.680106 0.035464 -0.381144 -0.012279 0.055504 0.922237 0.271069 0.000000 0.000000 0.000000 
-469.669189 797.705688 1142.979004 41.861291 -0.143860 0.128037 -0.483544 -2.448698 -1.373363 -0.298080 0.490997 0.270881 -0.326854 -0.469578 -0.204276 0.025484 1.806586 0.191518 0.000000 0.000000 0.000000 0.043179 0.836429 -0.461868 -0.171076 0.945940 0.554108 -0.475594 1.659527 -1.017466 0.000000 0.000000 0.000000 0.541526 0.534998 0.847667 -0.173712 0.927210 -0.713331 0.525347 1.187358 3.670463 0.000000 0.000000 0.000000 -0.347151 0.263362 -1.319609 -0.346393 -0.915540 -0.309798 -0.335604 1.687686 0.207985 0.000000 0.000000 0.000000 -0.017937 0.489854 0.679866 0.038222 -0.397403 -0.015895 0.058790 0.930800 0.274913 0.000000 0.000000 0.000000 
-469.631744 797.660095 1142.991943 41.851673 -0.134962 0.132730 -0.477681 -2.451846 -1.383232 -0.291523 0.491402 0.273446 -0.320596 -0.470486 -0.207086 0.033218 1.812780 0.161965 0.000000 0.000000 0.000000 0.050119 0.834128 -0.461605 -0.173707 0.948633 0.541418 -0.478158 1.667763 -1.020497 0.000000 0.000000 0.000000 0.540589 0.529596 0.857706 -0.173169 0.923907 -0.711641 0.526254 1.190099 3.675086 0.000000 0.000000 0.000000 -0.344472 0.260666 -1.320843 -0.343808 -0.933578 -0.311434 -0.332980 1.697733 0.211358 0.000000 0.000000 0.000000 -0.015859 0.491344 0.681031 0.040606 -0.420362 -0.022450 0.061846 0.943046 0.279628 0.000000 0.000000 0.000000 
-469.589935 797.615479 1143.005005 41.843476 -0.122763 0.137476 -0.472236 -2.457397 -1.400272 -0.284695 0.490703 0.277440 -0.314050 -0.471045 -0.209049 0.036428 1.817670 0.149872 0.000000 0.000000 0.000000 0.052227 0.830139 -0.459844 -0.177459 0.948550 0.532259 -0.482098 1.681920 -1.020639 0.000000 0.000000 0.000000 0.539270 0.524490 0.862820 -0.171135 0.917326 -0.697946 0.527704 1.195169 3.678649 0.000000 0.000000 0.000000 -0.342195 0.255438 -1.321685 -0.341527 -0.953350 -0.313610 -0.330653 1.709568 0.214978 0.000000 0.000000 0.000000 -0.014575 0.494254 0.684355 0.042464 -0.454290 -0.033338 0.064674 0.962260 0.286084 0.000000 0.000000 0.000000 
